<mxfile host="app.diagrams.net" agent="Mozilla/5.0 (Windows NT 10.0; Win64; x64) AppleWebKit/537.36 (KHTML, like Gecko) Chrome/132.0.0.0 Safari/537.36" version="26.0.5">
  <diagram name="Seite-1" id="zh8AMdGOvtbCTd08VaW1">
    <mxGraphModel dx="957" dy="459" grid="1" gridSize="10" guides="1" tooltips="1" connect="1" arrows="1" fold="1" page="1" pageScale="1" pageWidth="827" pageHeight="1169" math="0" shadow="0">
      <root>
        <mxCell id="0" />
        <mxCell id="1" parent="0" />
        <mxCell id="PjXkDwJ4QRPg5LpDb-Mo-2" style="edgeStyle=orthogonalEdgeStyle;rounded=0;orthogonalLoop=1;jettySize=auto;html=1;exitX=0.5;exitY=1;exitDx=0;exitDy=0;labelBackgroundColor=none;strokeColor=#23445D;fontColor=default;" edge="1" parent="1" source="PjXkDwJ4QRPg5LpDb-Mo-1" target="PjXkDwJ4QRPg5LpDb-Mo-3">
          <mxGeometry relative="1" as="geometry">
            <mxPoint x="414" y="180" as="targetPoint" />
          </mxGeometry>
        </mxCell>
        <mxCell id="PjXkDwJ4QRPg5LpDb-Mo-1" value="&lt;b&gt;&lt;font style=&quot;font-size: 14px;&quot;&gt;Exclusão&lt;/font&gt;&lt;/b&gt;" style="rhombus;whiteSpace=wrap;html=1;labelBackgroundColor=none;fillColor=#182E3E;strokeColor=#FFFFFF;fontColor=#FFFFFF;" vertex="1" parent="1">
          <mxGeometry x="356" y="60" width="116" height="80" as="geometry" />
        </mxCell>
        <mxCell id="PjXkDwJ4QRPg5LpDb-Mo-15" value="SIM" style="edgeStyle=orthogonalEdgeStyle;rounded=0;orthogonalLoop=1;jettySize=auto;html=1;labelBackgroundColor=none;strokeColor=#23445D;fontColor=#00CC00;fontStyle=1" edge="1" parent="1" source="PjXkDwJ4QRPg5LpDb-Mo-3" target="PjXkDwJ4QRPg5LpDb-Mo-16">
          <mxGeometry relative="1" as="geometry">
            <mxPoint x="450" y="290" as="targetPoint" />
          </mxGeometry>
        </mxCell>
        <mxCell id="PjXkDwJ4QRPg5LpDb-Mo-17" value="NÃO" style="edgeStyle=orthogonalEdgeStyle;rounded=0;orthogonalLoop=1;jettySize=auto;html=1;exitX=0.5;exitY=1;exitDx=0;exitDy=0;labelBackgroundColor=none;strokeColor=#23445D;fontColor=#FF0000;fontStyle=1" edge="1" parent="1" source="PjXkDwJ4QRPg5LpDb-Mo-3" target="PjXkDwJ4QRPg5LpDb-Mo-20">
          <mxGeometry x="0.0019" relative="1" as="geometry">
            <mxPoint x="451" y="280" as="targetPoint" />
            <mxPoint as="offset" />
          </mxGeometry>
        </mxCell>
        <mxCell id="PjXkDwJ4QRPg5LpDb-Mo-3" value="Chave encontrada?" style="rounded=0;whiteSpace=wrap;html=1;labelBackgroundColor=none;fillColor=#182E3E;strokeColor=#FFFFFF;fontColor=#FFFFFF;" vertex="1" parent="1">
          <mxGeometry x="374" y="180" width="79" height="60" as="geometry" />
        </mxCell>
        <mxCell id="PjXkDwJ4QRPg5LpDb-Mo-25" value="SIM" style="edgeStyle=orthogonalEdgeStyle;rounded=0;orthogonalLoop=1;jettySize=auto;html=1;exitX=0.5;exitY=1;exitDx=0;exitDy=0;labelBackgroundColor=none;strokeColor=#23445D;fontColor=#00CC00;fontStyle=1" edge="1" parent="1" source="PjXkDwJ4QRPg5LpDb-Mo-16" target="PjXkDwJ4QRPg5LpDb-Mo-26">
          <mxGeometry relative="1" as="geometry">
            <mxPoint x="365.0689655172414" y="380" as="targetPoint" />
          </mxGeometry>
        </mxCell>
        <mxCell id="PjXkDwJ4QRPg5LpDb-Mo-57" value="NÃO" style="edgeStyle=orthogonalEdgeStyle;rounded=0;orthogonalLoop=1;jettySize=auto;exitX=0;exitY=0.5;exitDx=0;exitDy=0;strokeColor=#23445D;fontStyle=1;labelBorderColor=none;labelBackgroundColor=none;textShadow=0;html=1;fontColor=#FF0000;" edge="1" parent="1" source="PjXkDwJ4QRPg5LpDb-Mo-16" target="PjXkDwJ4QRPg5LpDb-Mo-58">
          <mxGeometry relative="1" as="geometry">
            <mxPoint x="270" y="310" as="targetPoint" />
          </mxGeometry>
        </mxCell>
        <mxCell id="PjXkDwJ4QRPg5LpDb-Mo-16" value="Nó possui&amp;nbsp;&lt;div&gt;&lt;b&gt;n &amp;gt; d&lt;/b&gt;&lt;br&gt;&lt;div&gt;&amp;nbsp;elementos?&lt;/div&gt;&lt;/div&gt;" style="rounded=0;whiteSpace=wrap;html=1;labelBackgroundColor=none;fillColor=#182E3E;strokeColor=#FFFFFF;fontColor=#FFFFFF;" vertex="1" parent="1">
          <mxGeometry x="330" y="280" width="70" height="60" as="geometry" />
        </mxCell>
        <mxCell id="PjXkDwJ4QRPg5LpDb-Mo-38" style="edgeStyle=orthogonalEdgeStyle;rounded=0;orthogonalLoop=1;jettySize=auto;html=1;exitX=1;exitY=0.5;exitDx=0;exitDy=0;entryX=0.5;entryY=0;entryDx=0;entryDy=0;labelBackgroundColor=none;strokeColor=#23445D;fontColor=default;" edge="1" parent="1" source="PjXkDwJ4QRPg5LpDb-Mo-20" target="PjXkDwJ4QRPg5LpDb-Mo-33">
          <mxGeometry relative="1" as="geometry" />
        </mxCell>
        <mxCell id="PjXkDwJ4QRPg5LpDb-Mo-20" value="Chave não existe" style="rounded=0;whiteSpace=wrap;html=1;labelBackgroundColor=none;fillColor=#182E3E;strokeColor=#FFFFFF;fontColor=#FFFFFF;" vertex="1" parent="1">
          <mxGeometry x="427" y="280" width="70" height="60" as="geometry" />
        </mxCell>
        <mxCell id="PjXkDwJ4QRPg5LpDb-Mo-32" value="SIM" style="edgeStyle=orthogonalEdgeStyle;rounded=0;orthogonalLoop=1;jettySize=auto;html=1;exitX=1;exitY=0.5;exitDx=0;exitDy=0;entryX=0;entryY=0.5;entryDx=0;entryDy=0;labelBackgroundColor=none;strokeColor=#23445D;fontColor=#00CC00;fontStyle=1" edge="1" parent="1" source="PjXkDwJ4QRPg5LpDb-Mo-26" target="PjXkDwJ4QRPg5LpDb-Mo-31">
          <mxGeometry relative="1" as="geometry" />
        </mxCell>
        <mxCell id="PjXkDwJ4QRPg5LpDb-Mo-39" value="NÃO" style="edgeStyle=orthogonalEdgeStyle;rounded=0;orthogonalLoop=1;jettySize=auto;exitX=0.5;exitY=1;exitDx=0;exitDy=0;entryX=0.5;entryY=0;entryDx=0;entryDy=0;labelBackgroundColor=none;strokeColor=#23445D;fontColor=#FF0000;fontStyle=1;html=1;" edge="1" parent="1" source="PjXkDwJ4QRPg5LpDb-Mo-26" target="PjXkDwJ4QRPg5LpDb-Mo-40">
          <mxGeometry relative="1" as="geometry">
            <mxPoint x="364.8333333333335" y="480" as="targetPoint" />
          </mxGeometry>
        </mxCell>
        <mxCell id="PjXkDwJ4QRPg5LpDb-Mo-26" value="Nó é folha?" style="rounded=0;whiteSpace=wrap;html=1;labelBackgroundColor=none;fillColor=#182E3E;strokeColor=#FFFFFF;fontColor=#FFFFFF;" vertex="1" parent="1">
          <mxGeometry x="330" y="380" width="70" height="50" as="geometry" />
        </mxCell>
        <mxCell id="PjXkDwJ4QRPg5LpDb-Mo-37" style="edgeStyle=orthogonalEdgeStyle;rounded=0;orthogonalLoop=1;jettySize=auto;html=1;exitX=1;exitY=0.5;exitDx=0;exitDy=0;entryX=0;entryY=0.5;entryDx=0;entryDy=0;labelBackgroundColor=none;strokeColor=#23445D;fontColor=default;" edge="1" parent="1" source="PjXkDwJ4QRPg5LpDb-Mo-31" target="PjXkDwJ4QRPg5LpDb-Mo-33">
          <mxGeometry relative="1" as="geometry" />
        </mxCell>
        <mxCell id="PjXkDwJ4QRPg5LpDb-Mo-31" value="Excluir chave" style="rounded=0;whiteSpace=wrap;html=1;labelBackgroundColor=none;fillColor=#182E3E;strokeColor=#FFFFFF;fontColor=#FFFFFF;" vertex="1" parent="1">
          <mxGeometry x="447" y="380" width="50" height="50" as="geometry" />
        </mxCell>
        <mxCell id="PjXkDwJ4QRPg5LpDb-Mo-33" value="FIM" style="ellipse;whiteSpace=wrap;html=1;aspect=fixed;labelBackgroundColor=none;fillColor=#182E3E;strokeColor=#FFFFFF;fontColor=#FFFFFF;fontStyle=1" vertex="1" parent="1">
          <mxGeometry x="550" y="385" width="40" height="40" as="geometry" />
        </mxCell>
        <mxCell id="PjXkDwJ4QRPg5LpDb-Mo-55" style="edgeStyle=orthogonalEdgeStyle;rounded=0;orthogonalLoop=1;jettySize=auto;html=1;exitX=0;exitY=0.5;exitDx=0;exitDy=0;entryX=0;entryY=0.75;entryDx=0;entryDy=0;labelBackgroundColor=none;strokeColor=#23445D;fontColor=default;" edge="1" parent="1" source="PjXkDwJ4QRPg5LpDb-Mo-40" target="PjXkDwJ4QRPg5LpDb-Mo-16">
          <mxGeometry relative="1" as="geometry" />
        </mxCell>
        <mxCell id="PjXkDwJ4QRPg5LpDb-Mo-40" value="Trocar chave pelo seu antecessor" style="rounded=0;whiteSpace=wrap;html=1;labelBackgroundColor=none;fillColor=#182E3E;strokeColor=#FFFFFF;fontColor=#FFFFFF;" vertex="1" parent="1">
          <mxGeometry x="327.5" y="480" width="75" height="50" as="geometry" />
        </mxCell>
        <mxCell id="PjXkDwJ4QRPg5LpDb-Mo-61" style="edgeStyle=orthogonalEdgeStyle;rounded=0;orthogonalLoop=1;jettySize=auto;html=1;exitX=1;exitY=0.5;exitDx=0;exitDy=0;entryX=0.5;entryY=0;entryDx=0;entryDy=0;strokeColor=#23445D;dashed=1;dashPattern=8 8;" edge="1" parent="1" source="PjXkDwJ4QRPg5LpDb-Mo-54" target="PjXkDwJ4QRPg5LpDb-Mo-16">
          <mxGeometry relative="1" as="geometry" />
        </mxCell>
        <mxCell id="PjXkDwJ4QRPg5LpDb-Mo-54" value="Concatenar nós" style="rounded=0;whiteSpace=wrap;html=1;labelBackgroundColor=none;fillColor=#182E3E;strokeColor=#FFFFFF;fontColor=#FFFFFF;" vertex="1" parent="1">
          <mxGeometry x="195" y="182.5" width="70" height="55" as="geometry" />
        </mxCell>
        <mxCell id="PjXkDwJ4QRPg5LpDb-Mo-62" value="NÃO" style="edgeStyle=orthogonalEdgeStyle;rounded=0;orthogonalLoop=1;jettySize=auto;html=1;exitX=0.5;exitY=1;exitDx=0;exitDy=0;strokeColor=#23445D;fontStyle=1;entryX=0.5;entryY=0;entryDx=0;entryDy=0;labelBackgroundColor=none;fontColor=#FF0000;" edge="1" parent="1" source="PjXkDwJ4QRPg5LpDb-Mo-58" target="PjXkDwJ4QRPg5LpDb-Mo-63">
          <mxGeometry relative="1" as="geometry">
            <mxPoint x="229.8965517241379" y="380" as="targetPoint" />
          </mxGeometry>
        </mxCell>
        <mxCell id="PjXkDwJ4QRPg5LpDb-Mo-67" value="SIM" style="edgeStyle=orthogonalEdgeStyle;rounded=0;orthogonalLoop=1;jettySize=auto;html=1;labelBackgroundColor=none;fontColor=#00CC00;fontStyle=1;strokeColor=#23445D;" edge="1" parent="1" source="PjXkDwJ4QRPg5LpDb-Mo-58" target="PjXkDwJ4QRPg5LpDb-Mo-54">
          <mxGeometry relative="1" as="geometry" />
        </mxCell>
        <mxCell id="PjXkDwJ4QRPg5LpDb-Mo-58" value="Nó + irmão possuem&amp;nbsp;&lt;div&gt;&lt;b&gt;n &amp;lt; 2d&lt;/b&gt; elementos?&lt;/div&gt;" style="rounded=0;whiteSpace=wrap;html=1;strokeColor=#FFFFFF;fontColor=#FFFFFF;fillColor=#182E3E;" vertex="1" parent="1">
          <mxGeometry x="190" y="278.12" width="80" height="63.75" as="geometry" />
        </mxCell>
        <mxCell id="PjXkDwJ4QRPg5LpDb-Mo-65" style="edgeStyle=orthogonalEdgeStyle;rounded=0;orthogonalLoop=1;jettySize=auto;html=1;exitX=1;exitY=0.5;exitDx=0;exitDy=0;entryX=0;entryY=0.75;entryDx=0;entryDy=0;strokeColor=#23445D;dashed=1;targetPerimeterSpacing=0;strokeWidth=1;dashPattern=8 8;" edge="1" parent="1" source="PjXkDwJ4QRPg5LpDb-Mo-63" target="PjXkDwJ4QRPg5LpDb-Mo-16">
          <mxGeometry relative="1" as="geometry">
            <Array as="points">
              <mxPoint x="307" y="408" />
              <mxPoint x="307" y="325" />
            </Array>
          </mxGeometry>
        </mxCell>
        <mxCell id="PjXkDwJ4QRPg5LpDb-Mo-63" value="Redistribuir nós" style="rounded=0;whiteSpace=wrap;html=1;labelBackgroundColor=none;fillColor=#182E3E;strokeColor=#FFFFFF;fontColor=#FFFFFF;" vertex="1" parent="1">
          <mxGeometry x="195" y="380" width="70" height="55" as="geometry" />
        </mxCell>
      </root>
    </mxGraphModel>
  </diagram>
</mxfile>
